<svg width="60" height="60" viewBox="0 0 60 60" fill="none" xmlns="http://www.w3.org/2000/svg">
<path d="M6.5 22.5H53.5" stroke="#57B12D" stroke-width="3"/>
<path d="M32 42H38V45H32V51H29V45H23V42H29V36H32V42Z" fill="#57B12D"/>
<circle cx="30.5" cy="43.5" r="15" stroke="#57B12D" stroke-width="3"/>
<circle cx="30.5" cy="12.5" r="4" stroke="#57B12D" stroke-width="3"/>
<path fill-rule="evenodd" clip-rule="evenodd" d="M6.5 22.5V50.5H17.2301C16.1255 48.4103 15.5 46.0282 15.5 43.5C15.5 35.2157 22.2157 28.5 30.5 28.5C38.7843 28.5 45.5 35.2157 45.5 43.5C45.5 46.0282 44.8745 48.4103 43.7699 50.5H53.5L53.5 22.5H58.5V14L38.5 2H21.5L1.5 14V22.5H6.5ZM30.5 16.5C32.7091 16.5 34.5 14.7091 34.5 12.5C34.5 10.2909 32.7091 8.5 30.5 8.5C28.2909 8.5 26.5 10.2909 26.5 12.5C26.5 14.7091 28.2909 16.5 30.5 16.5Z" fill="#57B12D" fill-opacity="0.25"/>
<path d="M6.5 50.5H5V52H6.5V50.5ZM6.5 22.5H8V21H6.5V22.5ZM17.2301 50.5V52H19.7197L18.5562 49.799L17.2301 50.5ZM43.7699 50.5L42.4438 49.799L41.2803 52H43.7699V50.5ZM53.5 50.5V52H55V50.5H53.5ZM53.5 22.5V21H52V22.5H53.5ZM58.5 22.5V24H60V22.5H58.5ZM58.5 14H60V13.1507L59.2717 12.7138L58.5 14ZM38.5 2L39.2717 0.713761L38.9155 0.5H38.5V2ZM21.5 2V0.5H21.0845L20.7283 0.713761L21.5 2ZM1.5 14L0.728256 12.7138L0 13.1507V14H1.5ZM1.5 22.5H0V24H1.5V22.5ZM6.5 50.5H8V22.5H6.5H5V50.5H6.5ZM17.2301 50.5V49H6.5V50.5V52H17.2301V50.5ZM15.5 43.5H14C14 46.2784 14.6879 48.9005 15.904 51.201L17.2301 50.5L18.5562 49.799C17.563 47.9201 17 45.778 17 43.5H15.5ZM30.5 28.5V27C21.3873 27 14 34.3873 14 43.5H15.5H17C17 36.0442 23.0442 30 30.5 30V28.5ZM45.5 43.5H47C47 34.3873 39.6127 27 30.5 27V28.5V30C37.9558 30 44 36.0442 44 43.5H45.5ZM43.7699 50.5L45.096 51.201C46.3121 48.9005 47 46.2784 47 43.5H45.5H44C44 45.778 43.437 47.9201 42.4438 49.799L43.7699 50.5ZM53.5 50.5V49H43.7699V50.5V52H53.5V50.5ZM53.5 22.5H52L52 50.5H53.5H55L55 22.5H53.5ZM58.5 22.5V21H53.5V22.5V24H58.5V22.5ZM58.5 14H57V22.5H58.5H60V14H58.5ZM38.5 2L37.7283 3.28624L57.7283 15.2862L58.5 14L59.2717 12.7138L39.2717 0.713761L38.5 2ZM21.5 2V3.5H38.5V2V0.5H21.5V2ZM1.5 14L2.27174 15.2862L22.2717 3.28624L21.5 2L20.7283 0.713761L0.728256 12.7138L1.5 14ZM1.5 22.5H3V14H1.5H0V22.5H1.5ZM6.5 22.5V21H1.5V22.5V24H6.5V22.5ZM34.5 12.5H33C33 13.8807 31.8807 15 30.5 15V16.5V18C33.5376 18 36 15.5376 36 12.5H34.5ZM30.5 8.5V10C31.8807 10 33 11.1193 33 12.5H34.5H36C36 9.46243 33.5376 7 30.5 7V8.5ZM26.5 12.5H28C28 11.1193 29.1193 10 30.5 10V8.5V7C27.4624 7 25 9.46243 25 12.5H26.5ZM30.5 16.5V15C29.1193 15 28 13.8807 28 12.5H26.5H25C25 15.5376 27.4624 18 30.5 18V16.5Z" fill="#57B12D"/>
</svg>
